<?xml version="1.0" encoding="UTF-8" standalone="no"?><!-- Generator: Gravit.io --><svg xmlns="http://www.w3.org/2000/svg" xmlns:xlink="http://www.w3.org/1999/xlink" style="isolation:isolate" viewBox="332 361.41 635 88" width="635pt" height="88pt"><defs><clipPath id="_clipPath_0EAnAEHJwaSrPPZ2OQGqOqq6qDUhbRlW"><rect x="332" y="361.41" width="634.8" height="87.59"/></clipPath></defs><g clip-path="url(#_clipPath_0EAnAEHJwaSrPPZ2OQGqOqq6qDUhbRlW)"><g><path d=" M 476.39 400.34 L 476.39 430.84 L 470.03 430.84 L 470.03 423.17 C 467.04 428.22 461.23 431.31 453.09 431.31 C 441.96 431.31 435.12 425.51 435.12 416.99 C 435.12 409.41 439.99 403.05 454.11 403.05 L 469.74 403.05 L 469.74 400.06 C 469.74 391.64 464.97 387.05 455.8 387.05 C 449.44 387.05 443.45 389.3 439.43 392.85 L 436.44 387.89 C 441.4 383.68 448.7 381.25 456.46 381.25 C 469.19 381.25 476.39 387.61 476.39 400.34 Z  M 469.75 416.06 L 469.75 408.01 L 454.31 408.01 C 444.77 408.01 441.68 411.75 441.68 416.81 C 441.68 422.52 446.26 426.07 454.13 426.07 C 461.61 426.07 467.13 422.51 469.75 416.06 Z " fill="rgb(255,255,255)"/><path d=" M 539.36 361.41 L 539.36 430.84 L 533 430.84 L 533 421.11 C 528.98 427.75 522.15 431.31 514.01 431.31 C 499.97 431.31 489.49 421.11 489.49 406.23 C 489.49 391.35 499.97 381.25 514.01 381.25 C 521.87 381.25 528.61 384.62 532.72 390.98 L 532.72 361.41 L 539.36 361.41 Z  M 532.81 406.23 C 532.81 394.72 524.95 387.05 514.56 387.05 C 504.08 387.05 496.22 394.72 496.22 406.23 C 496.22 417.74 504.08 425.41 514.56 425.41 C 524.95 425.41 532.81 417.74 532.81 406.23 Z " fill="rgb(255,255,255)"/><path d=" M 639.11 402.3 L 639.11 430.84 L 632.47 430.84 L 632.47 402.96 C 632.47 392.57 627.23 387.24 618.34 387.24 C 608.23 387.24 601.87 393.79 601.87 405.02 L 601.87 430.85 L 595.23 430.85 L 595.23 402.96 C 595.23 392.57 589.99 387.24 581.01 387.24 C 571 387.24 564.54 393.79 564.54 405.02 L 564.54 430.85 L 557.9 430.85 L 557.9 381.62 L 564.26 381.62 L 564.26 390.6 C 567.72 384.7 574.08 381.24 582.32 381.24 C 590.46 381.24 596.82 384.7 599.82 391.63 C 603.38 385.27 610.39 381.24 619.28 381.24 C 631.25 381.25 639.11 388.17 639.11 402.3 Z " fill="rgb(255,255,255)"/><path d=" M 694.32 400.34 L 694.32 430.84 L 687.96 430.84 L 687.96 423.17 C 684.97 428.22 679.16 431.31 671.02 431.31 C 659.88 431.31 653.05 425.51 653.05 416.99 C 653.05 409.41 657.92 403.05 672.04 403.05 L 687.67 403.05 L 687.67 400.06 C 687.67 391.64 682.9 387.05 673.73 387.05 C 667.37 387.05 661.38 389.3 657.36 392.85 L 654.37 387.89 C 659.33 383.68 666.63 381.25 674.39 381.25 C 687.12 381.25 694.32 387.61 694.32 400.34 Z  M 687.68 416.06 L 687.68 408.01 L 672.24 408.01 C 662.7 408.01 659.61 411.75 659.61 416.81 C 659.61 422.52 664.19 426.07 672.05 426.07 C 679.54 426.07 685.06 422.51 687.68 416.06 Z " fill="rgb(255,255,255)"/><path d=" M 762.26 406.23 C 762.26 421.2 751.78 431.31 737.74 431.31 C 729.88 431.31 723.14 427.94 719.03 421.58 L 719.03 449 L 712.39 449 L 712.39 381.62 L 718.75 381.62 L 718.75 391.35 C 722.77 384.8 729.6 381.24 737.74 381.24 C 751.78 381.25 762.26 391.35 762.26 406.23 Z  M 755.61 406.23 C 755.61 394.81 747.66 387.05 737.27 387.05 C 726.79 387.05 718.93 394.82 718.93 406.23 C 718.93 417.74 726.79 425.41 737.27 425.41 C 747.66 425.41 755.61 417.74 755.61 406.23 Z " fill="rgb(255,255,255)"/><path d=" M 825.7 406.23 C 825.7 421.2 815.22 431.31 801.18 431.31 C 793.32 431.31 786.58 427.94 782.47 421.58 L 782.47 449 L 775.83 449 L 775.83 381.62 L 782.19 381.62 L 782.19 391.35 C 786.21 384.8 793.04 381.24 801.18 381.24 C 815.22 381.25 825.7 391.35 825.7 406.23 Z  M 819.05 406.23 C 819.05 394.81 811.1 387.05 800.71 387.05 C 790.23 387.05 782.37 394.82 782.37 406.23 C 782.37 417.74 790.23 425.41 800.71 425.41 C 811.1 425.41 819.05 417.74 819.05 406.23 Z " fill="rgb(255,255,255)"/><path d=" M 882.12 408.29 L 840.95 408.29 C 841.7 418.58 849.56 425.41 860.32 425.41 C 866.31 425.41 871.64 423.26 875.38 418.95 L 879.12 423.25 C 874.72 428.49 867.89 431.3 860.13 431.3 C 844.79 431.3 834.3 420.82 834.3 406.22 C 834.3 391.62 844.5 381.24 858.35 381.24 C 872.2 381.24 882.21 391.44 882.21 406.22 C 882.22 406.79 882.12 407.54 882.12 408.29 Z  M 840.95 403.33 L 875.85 403.33 C 875.01 393.69 867.99 386.96 858.35 386.96 C 848.81 386.95 841.79 393.69 840.95 403.33 Z " fill="rgb(255,255,255)"/><path d=" M 920.58 381.25 L 920.58 387.71 C 920.02 387.71 919.46 387.62 918.99 387.62 C 908.7 387.62 902.43 394.17 902.43 405.77 L 902.43 430.85 L 895.79 430.85 L 895.79 381.62 L 902.15 381.62 L 902.15 391.26 C 905.24 384.71 911.51 381.25 920.58 381.25 Z " fill="rgb(255,255,255)"/><path d=" M 926.48 425.22 L 929.47 419.98 C 933.4 423.07 940.04 425.5 946.97 425.5 C 956.33 425.5 960.16 422.32 960.16 417.45 C 960.16 404.63 928.25 414.74 928.25 395.27 C 928.25 387.22 935.17 381.23 947.71 381.23 C 954.07 381.23 961 383.01 965.11 385.82 L 962.21 391.15 C 957.91 388.16 952.76 386.94 947.71 386.94 C 938.82 386.94 934.89 390.4 934.89 395.08 C 934.89 408.37 966.8 398.35 966.8 417.26 C 966.8 425.77 959.31 431.3 946.5 431.3 C 938.36 431.31 930.5 428.69 926.48 425.22 Z " fill="rgb(255,255,255)"/><path d=" M 332 364.13 L 338.66 364.13 L 338.66 425.08 L 362.62 425.08 L 362.62 430.84 L 332 430.84 L 332 364.13 Z " fill="rgb(255,255,255)"/><path d=" M 402.268 401.571 C 399.835 402.174 397.214 402.141 394.802 401.471 L 389.498 409.049 C 392.757 411.023 395.071 414.503 394.998 419.49 L 394.998 419.49 L 394.998 419.49 L 394.998 419.49 C 395.239 435.998 369.311 435.998 369.552 419.49 C 369.411 409.299 379.233 405.399 386.715 407.791 L 386.715 407.791 L 391.947 400.316 C 388.456 398.394 385.926 394.828 386.002 389.619 C 385.773 373.111 411.689 373.111 411.448 389.619 L 411.448 389.619 L 411.448 389.619 C 411.527 394.99 408.835 398.614 405.175 400.49 L 410.393 407.944 C 417.926 405.244 428.15 409.093 427.998 419.49 L 427.998 419.49 L 427.998 419.49 L 427.998 419.49 L 427.998 419.49 C 428.239 435.998 402.311 435.998 402.552 419.49 C 402.485 414.703 404.618 411.304 407.673 409.293 L 402.268 401.571 Z  M 424 419.49 L 424 419.75 C 424 419.75 424 419.76 424 419.77 C 424.02 421.01 423.76 422.25 423.26 423.39 C 422.84 424.31 422.22 425.12 421.45 425.77 C 420.63 426.46 419.69 426.98 418.68 427.32 C 417.58 427.69 416.43 427.88 415.28 427.87 C 414.12 427.88 412.97 427.69 411.87 427.32 C 410.86 426.98 409.92 426.46 409.1 425.77 C 408.33 425.12 407.71 424.31 407.29 423.39 C 406.79 422.25 406.53 421.01 406.55 419.77 C 406.55 419.76 406.55 419.75 406.55 419.75 L 406.55 419.49 L 406.55 419.25 C 406.55 419.24 406.55 419.23 406.55 419.23 C 406.53 417.98 406.79 416.74 407.29 415.6 C 407.72 414.68 408.34 413.86 409.11 413.21 C 409.93 412.52 410.86 412 411.88 411.66 C 412.97 411.29 414.12 411.11 415.28 411.11 C 416.44 411.1 417.58 411.29 418.68 411.66 C 419.69 412 420.63 412.52 421.45 413.2 C 422.22 413.86 422.84 414.67 423.26 415.59 C 423.76 416.73 424.02 417.97 424 419.21 C 424 419.22 424 419.23 424 419.23 L 424 419.49 L 424 419.49 L 424 419.49 L 424 419.49 L 424 419.49 Z  M 391 419.49 L 391 419.75 C 391 419.75 391 419.76 391 419.77 C 391.02 421.01 390.76 422.25 390.26 423.39 C 389.84 424.31 389.22 425.12 388.45 425.77 C 387.63 426.46 386.69 426.98 385.68 427.32 C 384.58 427.69 383.43 427.88 382.28 427.87 C 381.12 427.88 379.97 427.69 378.87 427.32 C 377.86 426.98 376.92 426.46 376.1 425.77 C 375.33 425.12 374.71 424.31 374.29 423.39 C 373.79 422.25 373.53 421.01 373.55 419.77 C 373.55 419.76 373.55 419.75 373.55 419.75 L 373.55 419.49 L 373.55 419.25 C 373.55 419.24 373.55 419.23 373.55 419.23 C 373.53 417.98 373.79 416.74 374.29 415.6 C 374.72 414.68 375.34 413.86 376.11 413.21 C 376.93 412.52 377.86 412 378.88 411.66 C 379.97 411.29 381.12 411.11 382.28 411.11 C 383.44 411.1 384.58 411.29 385.68 411.66 C 386.69 412 387.63 412.52 388.45 413.2 C 389.22 413.86 389.84 414.67 390.26 415.59 C 390.76 416.73 391.02 417.97 391 419.21 C 391 419.22 391 419.23 391 419.23 L 391 419.49 L 391 419.49 L 391 419.49 L 391 419.49 L 391 419.49 Z  M 407.45 389.62 L 407.45 389.88 C 407.45 389.88 407.45 389.89 407.45 389.89 C 407.47 391.14 407.21 392.38 406.71 393.52 C 406.29 394.43 405.67 395.25 404.9 395.9 C 404.08 396.59 403.14 397.11 402.13 397.45 C 401.03 397.82 399.88 398 398.73 398 C 397.57 398 396.42 397.82 395.32 397.45 C 394.31 397.11 393.37 396.59 392.55 395.9 C 391.78 395.25 391.16 394.43 390.74 393.52 C 390.24 392.38 389.98 391.14 390 389.89 C 390 389.89 390 389.88 390 389.88 L 390 389.62 L 390 389.38 C 390 389.37 390 389.36 390 389.36 C 389.98 388.11 390.24 386.87 390.74 385.73 C 391.17 384.81 391.79 383.99 392.56 383.34 C 393.38 382.65 394.31 382.13 395.33 381.79 C 396.42 381.42 397.57 381.23 398.73 381.24 C 399.89 381.23 401.03 381.42 402.13 381.79 C 403.14 382.13 404.08 382.65 404.9 383.33 C 405.67 383.99 406.29 384.8 406.71 385.72 C 407.21 386.86 407.47 388.1 407.45 389.34 C 407.45 389.35 407.45 389.36 407.45 389.36 L 407.45 389.62 L 407.45 389.62 L 407.45 389.62 L 407.45 389.62 Z " fill-rule="evenodd" fill="rgb(255,147,39)"/></g></g></svg>